<svg width="310" height="164" viewBox="0 0 310 164" fill="none" xmlns="http://www.w3.org/2000/svg">
<path d="M276.528 29.7729C275.331 29.0836 273.801 29.4958 273.112 30.6935C272.422 31.8912 272.835 33.421 274.032 34.1103L276.528 29.7729ZM69.7336 28.0263L68.814 25.6992L69.7336 28.0263ZM113.403 17.1447C114.161 15.9893 113.839 14.4381 112.683 13.6801L93.8543 1.32708C92.6989 0.569043 91.1477 0.891199 90.3897 2.04664C89.6316 3.20209 89.9538 4.75327 91.1092 5.51131L107.846 16.4917L96.8657 33.2287C96.1077 34.3841 96.4298 35.9353 97.5853 36.6933C98.7407 37.4514 100.292 37.1292 101.05 35.9738L113.403 17.1447ZM304.797 73.658C306.313 92.9052 291.842 112.274 265.609 127.877C239.529 143.389 202.528 154.698 160.795 157.983L161.188 162.972C203.517 159.64 241.297 148.16 268.167 132.178C294.885 116.287 311.533 95.4574 309.786 73.2652L304.797 73.658ZM160.795 157.983C119.062 161.269 80.7468 155.89 52.5608 144.651C24.2092 133.345 6.88606 116.479 5.37071 97.2322L0.381808 97.625C2.12902 119.817 21.8325 137.785 50.7073 149.299C79.7477 160.879 118.858 166.305 161.188 162.972L160.795 157.983ZM274.032 34.1103C292.628 44.8122 303.603 58.4914 304.797 73.658L309.786 73.2652C308.408 55.763 295.827 40.8789 276.528 29.7729L274.032 34.1103ZM5.37071 97.2322C4.38699 84.7375 10.1039 72.2199 21.5028 60.634C32.9017 49.0481 49.8123 38.5893 70.6532 30.3533L68.814 25.6992C47.5443 34.1046 29.9671 44.8953 17.9355 57.1243C5.90384 69.3534 -0.752599 83.2163 0.381808 97.625L5.37071 97.2322ZM70.6532 30.3533C83.124 25.4251 96.9678 21.3066 111.82 18.2221L110.802 13.3223C95.692 16.4604 81.5715 20.6577 68.814 25.6992L70.6532 30.3533Z" fill="#069CDF"/>
</svg>
